# xmcd
#
# Track frame offsets:
#  150
#  18833
#  41732
#  64741
#  82333
#  101021
#  120270
#  134642
#  146074
#  167405
#  184831
#  203499
#  220414
#  240997
#  259948
#  276057
#  290275
#  308374
#
# Disc length: 4312 seconds
#
# Revision: 2
# Processed by: cddbd v1.5.1PL0 Copyright (c) Steve Scherf et al.
# Submitted via: Collectorz.com_Music_Collector 6.9
#
DISCID=0110d612
DTITLE=Various Artist - Darlington R'n'B Club House Rockin' Blues
DYEAR=1999
DGENRE=Blues
TTITLE0=The Motel Kings - I Want You To Want Me
TTITLE1=Eddie Martin Band - Blues With A Feeling
TTITLE2=Bare Wires - You Got What You Wanted
TTITLE3=Big Man Clayton - Can You Dig It
TTITLE4=The AM 5 - Leavin' Trunk
TTITLE5=Preacher - Double Trouble
TTITLE6=The Hokum Hotshots - Travelling Blues
TTITLE7=Off The Wall - Double Crossed
TTITLE8=The Nimmo Brothers - All My Life
TTITLE9=The Hoax - I Want To Be Loved
TTITLE10=Steve Bennett - Begging Bowl
TTITLE11=Gwyn Ashton - Just A Little Bit
TTITLE12=Erik and The Vikings - 19 Years Old
TTITLE13=Scandalous Bachelors - Icepicks Confession
TTITLE14=Alive and Kicking - Need Your Love So Bad
TTITLE15=Jet Martin - Baby Please Don't Go
TTITLE16=The Moonshots - Roadhouse Blues
TTITLE17=Mick Pini Band - Looking For Somebody
EXTD=
EXTT0=
EXTT1=
EXTT2=
EXTT3=
EXTT4=
EXTT5=
EXTT6=
EXTT7=
EXTT8=
EXTT9=
EXTT10=
EXTT11=
EXTT12=
EXTT13=
EXTT14=
EXTT15=
EXTT16=
EXTT17=
PLAYORDER=
